<svg width="42" height="22" viewBox="0 0 42 22" fill="none" xmlns="http://www.w3.org/2000/svg">
<path d="M10.5834 21.4167C7.69036 21.4167 5.23064 20.4049 3.20425 18.3813C1.17786 16.3577 0.165361 13.9007 0.166749 11.0104C0.168138 8.12015 1.18064 5.65834 3.20425 3.62501C5.23064 1.59723 7.69036 0.583344 10.5834 0.583344H31.4168C34.3098 0.583344 36.7695 1.59515 38.7959 3.61876C40.8223 5.64237 41.8348 8.09932 41.8334 10.9896C41.832 13.8799 40.8195 16.341 38.7959 18.3729C36.7695 20.4021 34.3098 21.4167 31.4168 21.4167H10.5834ZM31.4126 16.2083C32.857 16.2083 34.0869 15.7028 35.1022 14.6917C36.1174 13.6806 36.6251 12.4514 36.6251 11.0042C36.6251 9.55696 36.1195 8.32709 35.1084 7.31459C34.0973 6.30209 32.8681 5.79446 31.4209 5.79168C29.9737 5.7889 28.7438 6.29515 27.7313 7.31043C26.7188 8.32571 26.2112 9.55418 26.2084 10.9958C26.2056 12.4375 26.7119 13.6674 27.7272 14.6854C28.7424 15.7035 29.9709 16.2111 31.4126 16.2083Z" fill="#228B22"/>
</svg>
